<svg version="1.0" xmlns="http://www.w3.org/2000/svg"
 width="1200pt" height="1200pt" viewBox="0 0 429.000000 493.000000"
 preserveAspectRatio="xMidYMid meet" fill="#ECEFF4">

<g transform="translate(0.000000,493.000000) scale(0.100000,-0.100000)" stroke="none">
<path d="M1800 4195 c-8 -2 -55 -9 -105 -15 -204 -28 -480 -132 -655 -248
-102 -68 -235 -186 -301 -269 -245 -303 -298 -598 -169 -939 62 -166 118 -252
250 -384 125 -125 228 -195 369 -249 148 -57 210 -65 484 -63 278 2 332 -5
439 -59 84 -43 185 -145 226 -229 17 -36 37 -96 43 -135 37 -234 -157 -522
-408 -606 -141 -47 -279 -43 -464 12 -129 38 -241 90 -345 159 -110 73 -278
244 -354 361 -71 108 -75 113 -65 79 18 -58 111 -249 162 -333 111 -179 313
-405 456 -511 96 -71 236 -139 342 -167 105 -27 315 -37 434 -19 231 34 439
146 631 339 306 309 440 716 339 1035 -76 236 -373 485 -657 550 -122 28 -441
75 -612 91 -238 22 -281 31 -342 74 -60 42 -118 119 -150 200 -33 83 -32 245
1 318 52 117 203 212 401 254 141 29 385 32 510 5 373 -80 757 -378 964 -750
32 -56 52 -83 56 -74 4 7 16 47 26 88 15 58 19 111 19 235 0 145 -3 170 -29
260 -132 472 -566 861 -1082 970 -72 16 -374 30 -414 20z"/>
</g>
</svg>
